<?xml version="1.0" encoding="utf-8"?><svg xmlns="http://www.w3.org/2000/svg" xmlns:xlink="http://www.w3.org/1999/xlink" width="1366" height="663" preserveAspectRatio="xMidYMid" viewBox="0 0 1366 663" style="z-index:1;margin-right:-2px;display:block;background-repeat-y:initial;background-repeat-x:initial;background-color:rgb(153, 204, 255);animation-play-state:paused" ><g transform="translate(683,331.5) scale(1,1) translate(-683,-331.5)" style="transform:matrix(1, 0, 0, 1, 0, 0);animation-play-state:paused" ><defs style="animation-play-state:paused" ><linearGradient id="lg-0.43565381342130083" x1="0" x2="0" y1="0" y2="1" style="animation-play-state:paused" ><stop stop-color="#3184ce" offset="0" style="animation-play-state:paused" ></stop>

  
<stop stop-color="#e9f6ff" offset="1" style="animation-play-state:paused" ></stop></linearGradient></defs>


<rect x="0" y="0" width="1366" height="663" fill="url(#lg-0.43565381342130083)" style="animation-play-state:paused" ></rect>
<circle cx="0" cy="250.65618364851642" r="33.61984695956966" fill="#91cbf0" transform="matrix(1,0,0,1,0,0)" style="transform:matrix(1, 0, 0, 1, 0, 0);animation-play-state:paused" ></circle>
<circle cx="33.61984695956966" cy="210.3330205704217" r="70.70273949247587" fill="#91cbf0" transform="matrix(1,0,0,1,-0.005429744720458984,0)" style="transform:matrix(1, 0, 0, 1, -0.00542974, 0);animation-play-state:paused" ></circle>
<circle cx="104.32258645204553" cy="223.36853186448818" r="66.51992350012848" fill="#91cbf0" transform="matrix(1,0,0,1,-0.022117653861641884,0)" style="transform:matrix(1, 0, 0, 1, -0.0221177, 0);animation-play-state:paused" ></circle>
<circle cx="170.842509952174" cy="243.54478945210496" r="52.73753587199911" fill="#91cbf0" transform="matrix(1,0,0,1,-0.05069183558225632,0)" style="transform:matrix(1, 0, 0, 1, -0.0506918, 0);animation-play-state:paused" ></circle>
<circle cx="223.5800458241731" cy="242.87806345946072" r="59.61735437342643" fill="#91cbf0" transform="matrix(1,0,0,1,-0.09182170033454895,0)" style="transform:matrix(1, 0, 0, 1, -0.0918217, 0);animation-play-state:paused" ></circle>
<circle cx="283.19740019759956" cy="233.3311417772373" r="82.09849516072448" fill="#91cbf0" transform="matrix(1,0,0,1,-0.14621886610984802,0)" style="transform:matrix(1, 0, 0, 1, -0.146219, 0);animation-play-state:paused" ></circle>
<circle cx="365.29589535832406" cy="241.82740063185196" r="88.09267511752796" fill="#91cbf0" transform="matrix(1,0,0,1,-0.21463720500469208,0)" style="transform:matrix(1, 0, 0, 1, -0.214637, 0);animation-play-state:paused" ></circle>
<circle cx="453.388570475852" cy="273.78690764711985" r="42.66825226347855" fill="#91cbf0" transform="matrix(1,0,0,1,-0.2978716492652893,0)" style="transform:matrix(1, 0, 0, 1, -0.297872, 0);animation-play-state:paused" ></circle>
<circle cx="496.0568227393306" cy="276.2552856644911" r="44.89171539858825" fill="#91cbf0" transform="matrix(1,0,0,1,-0.3967548906803131,0)" style="transform:matrix(1, 0, 0, 1, -0.396755, 0);animation-play-state:paused" ></circle>
<circle cx="540.9485381379188" cy="274.3305139435618" r="66.79069464981012" fill="#91cbf0" transform="matrix(1,0,0,1,-0.5121519565582275,0)" style="transform:matrix(1, 0, 0, 1, -0.512152, 0);animation-play-state:paused" ></circle>
<circle cx="607.739232787729" cy="278.7931909602584" r="92.3151473089613" fill="#91cbf0" transform="matrix(1,0,0,1,-0.6449503302574158,0)" style="transform:matrix(1, 0, 0, 1, -0.64495, 0);animation-play-state:paused" ></circle>
<circle cx="700.0543800966902" cy="288.61273661435024" r="79.67165830491616" fill="#91cbf0" transform="matrix(1,0,0,1,-0.7960466146469116,0)" style="transform:matrix(1, 0, 0, 1, -0.796047, 0);animation-play-state:paused" ></circle>
<circle cx="779.7260384016064" cy="281.78436841195037" r="54.22769710075444" fill="#91cbf0" transform="matrix(1,0,0,1,-0.9663257002830505,0)" style="transform:matrix(1, 0, 0, 1, -0.966326, 0);animation-play-state:paused" ></circle>
<circle cx="833.9537355023608" cy="275.67152883035436" r="57.795554457059865" fill="#91cbf0" transform="matrix(1,0,0,1,-1.156632423400879,0)" style="transform:matrix(1, 0, 0, 1, -1.15663, 0);animation-play-state:paused" ></circle>
<circle cx="891.7492899594207" cy="259.49692701935186" r="85.89489833300895" fill="#91cbf0" transform="matrix(1,0,0,1,-1.3677335977554321,0)" style="transform:matrix(1, 0, 0, 1, -1.36773, 0);animation-play-state:paused" ></circle>
<circle cx="977.6441882924297" cy="254.33548199332702" r="70.82515904941813" fill="#91cbf0" transform="matrix(1,0,0,1,-1.600266933441162,0)" style="transform:matrix(1, 0, 0, 1, -1.60027, 0);animation-play-state:paused" ></circle>
<circle cx="1048.4693473418479" cy="235.67175895702633" r="86.16588711475042" fill="#91cbf0" transform="matrix(1,0,0,1,-1.8546782732009888,0)" style="transform:matrix(1, 0, 0, 1, -1.85468, 0);animation-play-state:paused" ></circle>
<circle cx="1134.6352344565983" cy="220.9805892246248" r="88.2409333738867" fill="#91cbf0" transform="matrix(1,0,0,1,-2.131143569946289,0)" style="transform:matrix(1, 0, 0, 1, -2.13114, 0);animation-play-state:paused" ></circle>
<circle cx="1222.876167830485" cy="253.76900940151512" r="39.25092470888854" fill="#91cbf0" transform="matrix(1,0,0,1,-2.4294803142547607,0)" style="transform:matrix(1, 0, 0, 1, -2.42948, 0);animation-play-state:paused" ></circle>
<circle cx="1262.1270925393735" cy="246.42473565749935" r="43.80861290802366" fill="#91cbf0" transform="matrix(1,0,0,1,-2.749046802520752,0)" style="transform:matrix(1, 0, 0, 1, -2.74905, 0);animation-play-state:paused" ></circle>
<circle cx="1305.9357054473971" cy="197.7079736604055" r="85.23947366309656" fill="#91cbf0" transform="matrix(1,0,0,1,-3.0886495113372803,0)" style="transform:matrix(1, 0, 0, 1, -3.08865, 0);animation-play-state:paused" ></circle>
<circle cx="1391.1751791104937" cy="185.34839857783265" r="84.91312825307011" fill="#91cbf0" transform="matrix(1,0,0,1,-3.446460723876953,0)" style="transform:matrix(1, 0, 0, 1, -3.44646, 0);animation-play-state:paused" ></circle>
<circle cx="0" cy="306.12354145888685" r="39.06371545092763" fill="#a8d1f5" transform="matrix(1,0,0,1,0,0)" style="transform:matrix(1, 0, 0, 1, 0, 0);animation-play-state:paused" ></circle>
<circle cx="39.06371545092763" cy="255.98080073316027" r="85.75397220867141" fill="#a8d1f5" transform="matrix(1,0,0,1,-0.022117653861641884,0)" style="transform:matrix(1, 0, 0, 1, -0.0221177, 0);animation-play-state:paused" ></circle>
<circle cx="124.81768765959904" cy="273.43157134212504" r="81.13423931550344" fill="#a8d1f5" transform="matrix(1,0,0,1,-0.09182170033454895,0)" style="transform:matrix(1, 0, 0, 1, -0.0918217, 0);animation-play-state:paused" ></circle>
<circle cx="205.95192697510248" cy="280.514700866787" r="86.48230319512027" fill="#a8d1f5" transform="matrix(1,0,0,1,-0.21463720500469208,0)" style="transform:matrix(1, 0, 0, 1, -0.214637, 0);animation-play-state:paused" ></circle>
<circle cx="292.43423017022275" cy="309.8929973062872" r="62.819301967668125" fill="#a8d1f5" transform="matrix(1,0,0,1,-0.3967548906803131,0)" style="transform:matrix(1, 0, 0, 1, -0.396755, 0);animation-play-state:paused" ></circle>
<circle cx="355.2535321378909" cy="330.92557789301463" r="38.33458627695063" fill="#a8d1f5" transform="matrix(1,0,0,1,-0.6449503302574158,0)" style="transform:matrix(1, 0, 0, 1, -0.64495, 0);animation-play-state:paused" ></circle>
<circle cx="393.5881184148415" cy="333.2313260356505" r="38.87770675855325" fill="#a8d1f5" transform="matrix(1,0,0,1,-0.9663257002830505,0)" style="transform:matrix(1, 0, 0, 1, -0.966326, 0);animation-play-state:paused" ></circle>
<circle cx="432.46582517339476" cy="321.1584185478009" r="72.33810233309039" fill="#a8d1f5" transform="matrix(1,0,0,1,-1.3677335977554321,0)" style="transform:matrix(1, 0, 0, 1, -1.36773, 0);animation-play-state:paused" ></circle>
<circle cx="504.80392750648514" cy="341.22518405293863" r="37.60931792391958" fill="#a8d1f5" transform="matrix(1,0,0,1,-1.8546782732009888,0)" style="transform:matrix(1, 0, 0, 1, -1.85468, 0);animation-play-state:paused" ></circle>
<circle cx="542.4132454304047" cy="330.2034512670923" r="92.29202063548749" fill="#a8d1f5" transform="matrix(1,0,0,1,-2.4294803142547607,0)" style="transform:matrix(1, 0, 0, 1, -2.42948, 0);animation-play-state:paused" ></circle>
<circle cx="634.7052660658921" cy="345.2040159885571" r="91.87780678600744" fill="#a8d1f5" transform="matrix(1,0,0,1,-3.0886495113372803,0)" style="transform:matrix(1, 0, 0, 1, -3.08865, 0);animation-play-state:paused" ></circle>
<circle cx="726.5830728518996" cy="350.5766044387401" r="31.64797439373226" fill="#a8d1f5" transform="matrix(1,0,0,1,-3.819972276687622,0)" style="transform:matrix(1, 0, 0, 1, -3.81997, 0);animation-play-state:paused" ></circle>
<circle cx="758.2310472456319" cy="344.1284091520716" r="67.11874918422222" fill="#a8d1f5" transform="matrix(1,0,0,1,-4.60075569152832,0)" style="transform:matrix(1, 0, 0, 1, -4.60076, 0);animation-play-state:paused" ></circle>
<circle cx="825.3497964298541" cy="338.0884632435203" r="59.62179000898847" fill="#a8d1f5" transform="matrix(1,0,0,1,-5.399243354797363,0)" style="transform:matrix(1, 0, 0, 1, -5.39924, 0);animation-play-state:paused" ></circle>
<circle cx="884.9715864388426" cy="329.94688077864276" r="64.96491538656234" fill="#a8d1f5" transform="matrix(1,0,0,1,-6.180027961730957,0)" style="transform:matrix(1, 0, 0, 1, -6.18003, 0);animation-play-state:paused" ></circle>
<circle cx="949.9365018254049" cy="328.0970807802712" r="53.09843886331081" fill="#a8d1f5" transform="matrix(1,0,0,1,-6.911351203918457,0)" style="transform:matrix(1, 0, 0, 1, -6.91135, 0);animation-play-state:paused" ></circle>
<circle cx="1003.0349406887157" cy="330.1656687996296" r="40.60975388158842" fill="#a8d1f5" transform="matrix(1,0,0,1,-7.57051944732666,0)" style="transform:matrix(1, 0, 0, 1, -7.57052, 0);animation-play-state:paused" ></circle>
<circle cx="1043.6446945703042" cy="325.42383798221874" r="43.52048553998856" fill="#a8d1f5" transform="matrix(1,0,0,1,-8.1453218460083,0)" style="transform:matrix(1, 0, 0, 1, -8.14532, 0);animation-play-state:paused" ></circle>
<circle cx="1087.1651801102928" cy="330.4267961824424" r="31.78877301928996" fill="#a8d1f5" transform="matrix(1,0,0,1,-8.632266998291016,0)" style="transform:matrix(1, 0, 0, 1, -8.63227, 0);animation-play-state:paused" ></circle>
<circle cx="1118.9539531295827" cy="290.3512102185838" r="81.79213101432882" fill="#a8d1f5" transform="matrix(1,0,0,1,-9.033674240112305,0)" style="transform:matrix(1, 0, 0, 1, -9.03367, 0);animation-play-state:paused" ></circle>
<circle cx="1200.7460841439115" cy="293.76668693039784" r="65.11614165309184" fill="#a8d1f5" transform="matrix(1,0,0,1,-9.355050086975098,0)" style="transform:matrix(1, 0, 0, 1, -9.35505, 0);animation-play-state:paused" ></circle>
<circle cx="1265.8622257970032" cy="320.1489143375528" r="32.079181143209205" fill="#a8d1f5" transform="matrix(1,0,0,1,-9.60324478149414,0)" style="transform:matrix(1, 0, 0, 1, -9.60324, 0);animation-play-state:paused" ></circle>
<circle cx="1297.9414069402123" cy="265.0126548565987" r="81.43778151694411" fill="#a8d1f5" transform="matrix(1,0,0,1,-9.785362243652344,0)" style="transform:matrix(1, 0, 0, 1, -9.78536, 0);animation-play-state:paused" ></circle>
<circle cx="1379.3791884571565" cy="294.1368125527431" r="48.110231816313956" fill="#a8d1f5" transform="matrix(1,0,0,1,-9.908178329467773,0)" style="transform:matrix(1, 0, 0, 1, -9.90818, 0);animation-play-state:paused" ></circle>
<circle cx="0" cy="309.57291397833563" r="87.85590501805365" fill="#bdd7f8" transform="matrix(1,0,0,1,0,0)" style="transform:matrix(1, 0, 0, 1, 0, 0);animation-play-state:paused" ></circle>
<circle cx="87.85590501805365" cy="360.45626860546196" r="52.16295355553004" fill="#bdd7f8" transform="matrix(1,0,0,1,-0.05069185048341751,0)" style="transform:matrix(1, 0, 0, 1, -0.0506919, 0);animation-play-state:paused" ></circle>
<circle cx="140.01885857358369" cy="374.7050740979289" r="42.23816797580287" fill="#bdd7f8" transform="matrix(1,0,0,1,-0.21463724970817566,0)" style="transform:matrix(1, 0, 0, 1, -0.214637, 0);animation-play-state:paused" ></circle>
<circle cx="182.25702654938655" cy="385.9773999283388" r="32.988374109290106" fill="#bdd7f8" transform="matrix(1,0,0,1,-0.5121520161628723,0)" style="transform:matrix(1, 0, 0, 1, -0.512152, 0);animation-play-state:paused" ></circle>
<circle cx="215.24540065867666" cy="348.18617790983734" r="81.29946869548188" fill="#bdd7f8" transform="matrix(1,0,0,1,-0.9663259983062744,0)" style="transform:matrix(1, 0, 0, 1, -0.966326, 0);animation-play-state:paused" ></circle>
<circle cx="296.54486935415855" cy="352.79728871761296" r="91.61143695791753" fill="#bdd7f8" transform="matrix(1,0,0,1,-1.6002674102783203,0)" style="transform:matrix(1, 0, 0, 1, -1.60027, 0);animation-play-state:paused" ></circle>
<circle cx="388.1563063120761" cy="372.5045641887062" r="82.03324699514184" fill="#bdd7f8" transform="matrix(1,0,0,1,-2.429480791091919,0)" style="transform:matrix(1, 0, 0, 1, -2.42948, 0);animation-play-state:paused" ></circle>
<circle cx="470.1895533072179" cy="392.47983332606856" r="60.230728320791876" fill="#bdd7f8" transform="matrix(1,0,0,1,-3.4464619159698486,0)" style="transform:matrix(1, 0, 0, 1, -3.44646, 0);animation-play-state:paused" ></circle>
<circle cx="530.4202816280098" cy="401.0472112362738" r="52.047954709110364" fill="#bdd7f8" transform="matrix(1,0,0,1,-4.600757122039795,0)" style="transform:matrix(1, 0, 0, 1, -4.60076, 0);animation-play-state:paused" ></circle>
<circle cx="582.4682363371202" cy="402.11942904377315" r="72.9241323220321" fill="#bdd7f8" transform="matrix(1,0,0,1,-5.794002532958984,0)" style="transform:matrix(1, 0, 0, 1, -5.794, 0);animation-play-state:paused" ></circle>
<circle cx="655.3923686591522" cy="412.8380202345224" r="44.571980889102754" fill="#bdd7f8" transform="matrix(1,0,0,1,-6.911351680755615,0)" style="transform:matrix(1, 0, 0, 1, -6.91135, 0);animation-play-state:paused" ></circle>
<circle cx="699.964349548255" cy="412.57312894429737" r="81.42334636969127" fill="#bdd7f8" transform="matrix(1,0,0,1,-7.868857383728027,0)" style="transform:matrix(1, 0, 0, 1, -7.86886, 0);animation-play-state:paused" ></circle>
<circle cx="781.3876959179463" cy="405.6179552595155" r="54.27454197029391" fill="#bdd7f8" transform="matrix(1,0,0,1,-8.632266998291016,0)" style="transform:matrix(1, 0, 0, 1, -8.63227, 0);animation-play-state:paused" ></circle>
<circle cx="835.6622378882403" cy="392.2857920528601" r="84.68479305741283" fill="#bdd7f8" transform="matrix(1,0,0,1,-9.203954696655273,0)" style="transform:matrix(1, 0, 0, 1, -9.20395, 0);animation-play-state:paused" ></circle>
<circle cx="920.3470309456532" cy="381.74961238716173" r="79.7356183794317" fill="#bdd7f8" transform="matrix(1,0,0,1,-9.603245735168457,0)" style="transform:matrix(1, 0, 0, 1, -9.60325, 0);animation-play-state:paused" ></circle>
<circle cx="1000.0826493250848" cy="378.8000726045173" r="64.97924769178547" fill="#bdd7f8" transform="matrix(1,0,0,1,-9.853781700134277,0)" style="transform:matrix(1, 0, 0, 1, -9.85378, 0);animation-play-state:paused" ></circle>
<circle cx="1065.0618970168703" cy="384.6120844084096" r="45.269598353718685" fill="#bdd7f8" transform="matrix(1,0,0,1,-9.977882385253906,0)" style="transform:matrix(1, 0, 0, 1, -9.97788, 0);animation-play-state:paused" ></circle>
<circle cx="1110.331495370589" cy="382.02104058752485" r="43.92497300639091" fill="#bdd7f8" transform="matrix(1,0,0,1,-9.994569778442383,0)" style="transform:matrix(1, 0, 0, 1, -9.99457, 0);animation-play-state:paused" ></circle>
<circle cx="1154.25646837698" cy="377.862234499252" r="44.85366168088362" fill="#bdd7f8" transform="matrix(1,0,0,1,-9.908178329467773,0)" style="transform:matrix(1, 0, 0, 1, -9.90818, 0);animation-play-state:paused" ></circle>
<circle cx="1199.1101300578634" cy="372.1451225902642" r="47.26039328655172" fill="#bdd7f8" transform="matrix(1,0,0,1,-9.702127456665039,0)" style="transform:matrix(1, 0, 0, 1, -9.70213, 0);animation-play-state:paused" ></circle>
<circle cx="1246.3705233444152" cy="382.00454470996596" r="33.33492350840771" fill="#bdd7f8" transform="matrix(1,0,0,1,-9.355048179626465,0)" style="transform:matrix(1, 0, 0, 1, -9.35505, 0);animation-play-state:paused" ></circle>
<circle cx="1279.705446852823" cy="328.66064093895363" r="82.3546784399187" fill="#bdd7f8" transform="matrix(1,0,0,1,-8.843366622924805,0)" style="transform:matrix(1, 0, 0, 1, -8.84337, 0);animation-play-state:paused" ></circle>
<circle cx="1362.0601252927415" cy="375.8371931097114" r="32.82502303525283" fill="#bdd7f8" transform="matrix(1,0,0,1,-8.145318984985352,0)" style="transform:matrix(1, 0, 0, 1, -8.14532, 0);animation-play-state:paused" ></circle>
<circle cx="1394.8851483279943" cy="322.3377473316511" r="74.08535716883507" fill="#bdd7f8" transform="matrix(1,0,0,1,-7.250951766967773,0)" style="transform:matrix(1, 0, 0, 1, -7.25095, 0);animation-play-state:paused" ></circle>
<circle cx="0" cy="367.5953336688467" r="91.17055527596108" fill="#cfddfa" transform="matrix(1,0,0,1,0,0)" style="transform:matrix(1, 0, 0, 1, 0, 0);animation-play-state:paused" ></circle>
<circle cx="91.17055527596108" cy="408.51047891866574" r="65.8668688470478" fill="#cfddfa" transform="matrix(1,0,0,1,-0.09182170033454895,0)" style="transform:matrix(1, 0, 0, 1, -0.0918217, 0);animation-play-state:paused" ></circle>
<circle cx="157.03742412300886" cy="407.08912639976506" r="75.6535554349145" fill="#cfddfa" transform="matrix(1,0,0,1,-0.3967548906803131,0)" style="transform:matrix(1, 0, 0, 1, -0.396755, 0);animation-play-state:paused" ></circle>
<circle cx="232.69097955792336" cy="421.5717079382273" r="70.05841499878115" fill="#cfddfa" transform="matrix(1,0,0,1,-0.9663257002830505,0)" style="transform:matrix(1, 0, 0, 1, -0.966326, 0);animation-play-state:paused" ></circle>
<circle cx="302.7493945567045" cy="441.5061525634291" r="53.1278965594201" fill="#cfddfa" transform="matrix(1,0,0,1,-1.8546782732009888,0)" style="transform:matrix(1, 0, 0, 1, -1.85468, 0);animation-play-state:paused" ></circle>
<circle cx="355.8772911161246" cy="433.9815466353789" r="74.84857835225556" fill="#cfddfa" transform="matrix(1,0,0,1,-3.0886495113372803,0)" style="transform:matrix(1, 0, 0, 1, -3.08865, 0);animation-play-state:paused" ></circle>
<circle cx="430.72586946838015" cy="462.4644156477533" r="32.79436570204908" fill="#cfddfa" transform="matrix(1,0,0,1,-4.60075569152832,0)" style="transform:matrix(1, 0, 0, 1, -4.60076, 0);animation-play-state:paused" ></circle>
<circle cx="463.52023517042926" cy="460.97534372288675" r="41.55599585595507" fill="#cfddfa" transform="matrix(1,0,0,1,-6.180027961730957,0)" style="transform:matrix(1, 0, 0, 1, -6.18003, 0);animation-play-state:paused" ></circle>
<circle cx="505.07623102638433" cy="461.16687388736835" r="50.64914971408829" fill="#cfddfa" transform="matrix(1,0,0,1,-7.57051944732666,0)" style="transform:matrix(1, 0, 0, 1, -7.57052, 0);animation-play-state:paused" ></circle>
<circle cx="555.7253807404726" cy="458.2354806025534" r="83.91413008487308" fill="#cfddfa" transform="matrix(1,0,0,1,-8.632266998291016,0)" style="transform:matrix(1, 0, 0, 1, -8.63227, 0);animation-play-state:paused" ></circle>
<circle cx="639.6395108253457" cy="472.65134663039805" r="57.082117613929256" fill="#cfddfa" transform="matrix(1,0,0,1,-9.355050086975098,0)" style="transform:matrix(1, 0, 0, 1, -9.35505, 0);animation-play-state:paused" ></circle>
<circle cx="696.721628439275" cy="475.75175634226696" r="51.77655735278493" fill="#cfddfa" transform="matrix(1,0,0,1,-9.785362243652344,0)" style="transform:matrix(1, 0, 0, 1, -9.78536, 0);animation-play-state:paused" ></circle>
<circle cx="748.49818579206" cy="471.61904019102707" r="46.759508235290625" fill="#cfddfa" transform="matrix(1,0,0,1,-9.977882385253906,0)" style="transform:matrix(1, 0, 0, 1, -9.97788, 0);animation-play-state:paused" ></circle>
<circle cx="795.2576940273506" cy="470.3573760526242" r="33.67929621934778" fill="#cfddfa" transform="matrix(1,0,0,1,-9.977882385253906,0)" style="transform:matrix(1, 0, 0, 1, -9.97788, 0);animation-play-state:paused" ></circle>
<circle cx="828.9369902466983" cy="468.4249733403914" r="33.443332853286975" fill="#cfddfa" transform="matrix(1,0,0,1,-9.78536319732666,0)" style="transform:matrix(1, 0, 0, 1, -9.78536, 0);animation-play-state:paused" ></circle>
<circle cx="862.3803230999853" cy="464.6943091888829" r="39.04546997660476" fill="#cfddfa" transform="matrix(1,0,0,1,-9.355049133300781,0)" style="transform:matrix(1, 0, 0, 1, -9.35505, 0);animation-play-state:paused" ></circle>
<circle cx="901.42579307659" cy="445.4914317632973" r="82.1039791231749" fill="#cfddfa" transform="matrix(1,0,0,1,-8.632266998291016,0)" style="transform:matrix(1, 0, 0, 1, -8.63227, 0);animation-play-state:paused" ></circle>
<circle cx="983.5297721997649" cy="452.4887490727105" r="46.42131421456058" fill="#cfddfa" transform="matrix(1,0,0,1,-7.57051944732666,0)" style="transform:matrix(1, 0, 0, 1, -7.57052, 0);animation-play-state:paused" ></circle>
<circle cx="1029.9510864143256" cy="442.24264881587374" r="57.01877437561188" fill="#cfddfa" transform="matrix(1,0,0,1,-6.180026531219482,0)" style="transform:matrix(1, 0, 0, 1, -6.18003, 0);animation-play-state:paused" ></circle>
<circle cx="1086.9698607899375" cy="448.2105460744296" r="40.56242585505932" fill="#cfddfa" transform="matrix(1,0,0,1,-4.600756645202637,0)" style="transform:matrix(1, 0, 0, 1, -4.60076, 0);animation-play-state:paused" ></circle>
<circle cx="1127.5322866449967" cy="405.10901701832984" r="92.04719741705583" fill="#cfddfa" transform="matrix(1,0,0,1,-3.088648796081543,0)" style="transform:matrix(1, 0, 0, 1, -3.08865, 0);animation-play-state:paused" ></circle>
<circle cx="1219.5794840620524" cy="414.4168985882939" r="66.3838560328621" fill="#cfddfa" transform="matrix(1,0,0,1,-1.8546791076660156,0)" style="transform:matrix(1, 0, 0, 1, -1.85468, 0);animation-play-state:paused" ></circle>
<circle cx="1285.9633400949144" cy="421.12846974667156" r="52.73987740423323" fill="#cfddfa" transform="matrix(1,0,0,1,-0.9663257598876953,0)" style="transform:matrix(1, 0, 0, 1, -0.966326, 0);animation-play-state:paused" ></circle>
<circle cx="1338.7032174991477" cy="397.9634499091146" r="68.60568708452425" fill="#cfddfa" transform="matrix(1,0,0,1,-0.3967552185058594,0)" style="transform:matrix(1, 0, 0, 1, -0.396755, 0);animation-play-state:paused" ></circle>
<circle cx="1407.308904583672" cy="436.4002734581641" r="31.90353021640298" fill="#cfddfa" transform="matrix(1,0,0,1,-0.09182167053222656,0)" style="transform:matrix(1, 0, 0, 1, -0.0918217, 0);animation-play-state:paused" ></circle>
<circle cx="0" cy="470.2143205457556" r="57.32139954520367" fill="#dfe5fb" transform="matrix(1,0,0,1,0,0)" style="transform:matrix(1, 0, 0, 1, 0, 0);animation-play-state:paused" ></circle>
<circle cx="57.32139954520367" cy="437.4230296953025" r="92.40243402347369" fill="#dfe5fb" transform="matrix(1,0,0,1,-0.14621886610984802,0)" style="transform:matrix(1, 0, 0, 1, -0.146219, 0);animation-play-state:paused" ></circle>
<circle cx="149.72383356867735" cy="468.8214674321874" r="74.90168128172681" fill="#dfe5fb" transform="matrix(1,0,0,1,-0.6449503302574158,0)" style="transform:matrix(1, 0, 0, 1, -0.64495, 0);animation-play-state:paused" ></circle>
<circle cx="224.62551485040416" cy="471.2804150224195" r="84.0878619959843" fill="#dfe5fb" transform="matrix(1,0,0,1,-1.600266933441162,0)" style="transform:matrix(1, 0, 0, 1, -1.60027, 0);animation-play-state:paused" ></circle>
<circle cx="308.7133768463884" cy="498.31149451534856" r="61.873814359758484" fill="#dfe5fb" transform="matrix(1,0,0,1,-3.0886495113372803,0)" style="transform:matrix(1, 0, 0, 1, -3.08865, 0);animation-play-state:paused" ></circle>
<circle cx="370.58719120614694" cy="504.0463546968806" r="63.680006789199574" fill="#dfe5fb" transform="matrix(1,0,0,1,-5,0)" style="transform:matrix(1, 0, 0, 1, -5, 0);animation-play-state:paused" ></circle>
<circle cx="434.2671979953465" cy="510.99739180975877" r="64.07739965601372" fill="#dfe5fb" transform="matrix(1,0,0,1,-6.911351203918457,0)" style="transform:matrix(1, 0, 0, 1, -6.91135, 0);animation-play-state:paused" ></circle>
<circle cx="498.34459765136023" cy="524.4733287665832" r="44.775819924703455" fill="#dfe5fb" transform="matrix(1,0,0,1,-8.39973258972168,0)" style="transform:matrix(1, 0, 0, 1, -8.39973, 0);animation-play-state:paused" ></circle>
<circle cx="543.1204175760637" cy="516.4310082563802" r="91.83268621586531" fill="#dfe5fb" transform="matrix(1,0,0,1,-9.355050086975098,0)" style="transform:matrix(1, 0, 0, 1, -9.35505, 0);animation-play-state:paused" ></circle>
<circle cx="634.953103791929" cy="535.104166034757" r="46.150303284557594" fill="#dfe5fb" transform="matrix(1,0,0,1,-9.853780746459961,0)" style="transform:matrix(1, 0, 0, 1, -9.85378, 0);animation-play-state:paused" ></circle>
<circle cx="681.1034070764866" cy="538.7596731607396" r="72.12197426055093" fill="#dfe5fb" transform="matrix(1,0,0,1,-10,0)" style="transform:matrix(1, 0, 0, 1, -10, 0);animation-play-state:paused" ></circle>
<circle cx="753.2253813370376" cy="533.0279433006496" r="48.402664962403435" fill="#dfe5fb" transform="matrix(1,0,0,1,-9.853780746459961,0)" style="transform:matrix(1, 0, 0, 1, -9.85378, 0);animation-play-state:paused" ></circle>
<circle cx="801.6280462994409" cy="529.7994023969044" r="44.14363746560258" fill="#dfe5fb" transform="matrix(1,0,0,1,-9.355049133300781,0)" style="transform:matrix(1, 0, 0, 1, -9.35505, 0);animation-play-state:paused" ></circle>
<circle cx="845.7716837650435" cy="513.7336985770531" r="88.34912945087014" fill="#dfe5fb" transform="matrix(1,0,0,1,-8.399733543395996,0)" style="transform:matrix(1, 0, 0, 1, -8.39973, 0);animation-play-state:paused" ></circle>
<circle cx="934.1208132159136" cy="500.9813717724148" r="86.1694242799731" fill="#dfe5fb" transform="matrix(1,0,0,1,-6.911350727081299,0)" style="transform:matrix(1, 0, 0, 1, -6.91135, 0);animation-play-state:paused" ></circle>
<circle cx="1020.2902374958867" cy="497.77600492689055" r="69.56419502871299" fill="#dfe5fb" transform="matrix(1,0,0,1,-5,0)" style="transform:matrix(1, 0, 0, 1, -5, 0);animation-play-state:paused" ></circle>
<circle cx="1089.8544325245996" cy="482.8099005015299" r="78.60681628257512" fill="#dfe5fb" transform="matrix(1,0,0,1,-3.088648796081543,0)" style="transform:matrix(1, 0, 0, 1, -3.08865, 0);animation-play-state:paused" ></circle>
<circle cx="1168.4612488071748" cy="472.302715086774" r="78.19753157034424" fill="#dfe5fb" transform="matrix(1,0,0,1,-1.600266456604004,0)" style="transform:matrix(1, 0, 0, 1, -1.60027, 0);animation-play-state:paused" ></circle>
<circle cx="1246.658780377519" cy="494.873689898907" r="44.55749773953216" fill="#dfe5fb" transform="matrix(1,0,0,1,-0.6449508666992188,0)" style="transform:matrix(1, 0, 0, 1, -0.644951, 0);animation-play-state:paused" ></circle>
<circle cx="1291.2162781170512" cy="470.29264098943884" r="64.29610635311727" fill="#dfe5fb" transform="matrix(1,0,0,1,-0.14621925354003906,0)" style="transform:matrix(1, 0, 0, 1, -0.146219, 0);animation-play-state:paused" ></circle>
<circle cx="1355.5123844701684" cy="477.0489176290538" r="52.43099140433398" fill="#dfe5fb" transform="matrix(1,0,0,1,0,0)" style="transform:matrix(1, 0, 0, 1, 0, 0);animation-play-state:paused" ></circle>
<circle cx="0" cy="510.34436056617255" r="75.5463661948562" fill="#ecedfc" transform="matrix(1,0,0,1,0,0)" style="transform:matrix(1, 0, 0, 1, 0, 0);animation-play-state:paused" ></circle>
<circle cx="75.5463661948562" cy="564.5364858612767" r="34.16526898898647" fill="#ecedfc" transform="matrix(1,0,0,1,-0.2146373838186264,0)" style="transform:matrix(1, 0, 0, 1, -0.214637, 0);animation-play-state:paused" ></circle>
<circle cx="109.71163518384267" cy="539.814396487193" r="60.74570519243019" fill="#ecedfc" transform="matrix(1,0,0,1,-0.9663266539573669,0)" style="transform:matrix(1, 0, 0, 1, -0.966327, 0);animation-play-state:paused" ></circle>
<circle cx="170.45734037627287" cy="554.1002132782712" r="52.08111905334996" fill="#ecedfc" transform="matrix(1,0,0,1,-2.4294822216033936,0)" style="transform:matrix(1, 0, 0, 1, -2.42948, 0);animation-play-state:paused" ></circle>
<circle cx="222.53845942962283" cy="571.0862626520506" r="36.97573124735775" fill="#ecedfc" transform="matrix(1,0,0,1,-4.600759983062744,0)" style="transform:matrix(1, 0, 0, 1, -4.60076, 0);animation-play-state:paused" ></circle>
<circle cx="259.5141906769806" cy="567.2323098161704" r="45.38391426547922" fill="#ecedfc" transform="matrix(1,0,0,1,-6.911355018615723,0)" style="transform:matrix(1, 0, 0, 1, -6.91136, 0);animation-play-state:paused" ></circle>
<circle cx="304.89810494245984" cy="554.6440543499084" r="69.78081678704261" fill="#ecedfc" transform="matrix(1,0,0,1,-8.632269859313965,0)" style="transform:matrix(1, 0, 0, 1, -8.63227, 0);animation-play-state:paused" ></circle>
<circle cx="374.67892172950246" cy="562.2166029266438" r="71.5949002191983" fill="#ecedfc" transform="matrix(1,0,0,1,-9.603246688842773,0)" style="transform:matrix(1, 0, 0, 1, -9.60325, 0);animation-play-state:paused" ></circle>
<circle cx="446.27382194870074" cy="574.6860151923497" r="63.26737136964231" fill="#ecedfc" transform="matrix(1,0,0,1,-9.977882385253906,0)" style="transform:matrix(1, 0, 0, 1, -9.97788, 0);animation-play-state:paused" ></circle>
<circle cx="509.54119331834306" cy="582.5555049247344" r="60.52152658703191" fill="#ecedfc" transform="matrix(1,0,0,1,-9.908177375793457,0)" style="transform:matrix(1, 0, 0, 1, -9.90818, 0);animation-play-state:paused" ></circle>
<circle cx="570.0627199053749" cy="587.3352223091755" r="68.86597554422401" fill="#ecedfc" transform="matrix(1,0,0,1,-9.355046272277832,0)" style="transform:matrix(1, 0, 0, 1, -9.35505, 0);animation-play-state:paused" ></circle>
<circle cx="638.928695449599" cy="597.165115176006" r="49.52629913251276" fill="#ecedfc" transform="matrix(1,0,0,1,-8.14531421661377,0)" style="transform:matrix(1, 0, 0, 1, -8.14531, 0);animation-play-state:paused" ></circle>
<circle cx="688.4549945821118" cy="600.4755478615499" r="54.72061813713081" fill="#ecedfc" transform="matrix(1,0,0,1,-6.180017471313477,0)" style="transform:matrix(1, 0, 0, 1, -6.18002, 0);animation-play-state:paused" ></circle>
<circle cx="743.1756127192426" cy="595.0357470525839" r="56.41245374726528" fill="#ecedfc" transform="matrix(1,0,0,1,-3.8199596405029297,0)" style="transform:matrix(1, 0, 0, 1, -3.81996, 0);animation-play-state:paused" ></circle>
<circle cx="799.5880664665079" cy="584.0976054358832" r="82.51513095902273" fill="#ecedfc" transform="matrix(1,0,0,1,-1.8546695709228516,0)" style="transform:matrix(1, 0, 0, 1, -1.85467, 0);animation-play-state:paused" ></circle>
<circle cx="882.1031974255307" cy="587.5860326565064" r="38.345858722471554" fill="#ecedfc" transform="matrix(1,0,0,1,-0.6449451446533203,0)" style="transform:matrix(1, 0, 0, 1, -0.644945, 0);animation-play-state:paused" ></circle>
<circle cx="920.4490561480022" cy="570.5901355206212" r="72.8926089675626" fill="#ecedfc" transform="matrix(1,0,0,1,-0.09181976318359375,0)" style="transform:matrix(1, 0, 0, 1, -0.0918198, 0);animation-play-state:paused" ></circle>
<circle cx="993.3416651155649" cy="566.3910159717784" r="63.47288260094752" fill="#ecedfc" transform="matrix(1,0,0,1,-0.022118574008345604,0)" style="transform:matrix(1, 0, 0, 1, -0.0221186, 0);animation-play-state:paused" ></circle>
<circle cx="1056.8145477165124" cy="567.2975112726135" r="51.31510607202118" fill="#ecedfc" transform="matrix(1,0,0,1,-0.3967595100402832,0)" style="transform:matrix(1, 0, 0, 1, -0.39676, 0);animation-play-state:paused" ></circle>
<circle cx="1108.1296537885335" cy="575.0744383086928" r="34.70933019563526" fill="#ecedfc" transform="matrix(1,0,0,1,-1.367743968963623,0)" style="transform:matrix(1, 0, 0, 1, -1.36774, 0);animation-play-state:paused" ></circle>
<circle cx="1142.8389839841686" cy="566.8859613750732" r="42.22472284201983" fill="#ecedfc" transform="matrix(1,0,0,1,-3.0886662006378174,0)" style="transform:matrix(1, 0, 0, 1, -3.08867, 0);animation-play-state:paused" ></circle>
<circle cx="1185.0637068261885" cy="547.0483649238446" r="61.1625016506969" fill="#ecedfc" transform="matrix(1,0,0,1,-5.399263381958008,0)" style="transform:matrix(1, 0, 0, 1, -5.39926, 0);animation-play-state:paused" ></circle>
<circle cx="1246.2262084768854" cy="548.6396444807183" r="52.912610542366565" fill="#ecedfc" transform="matrix(1,0,0,1,-7.570536136627197,0)" style="transform:matrix(1, 0, 0, 1, -7.57054, 0);animation-play-state:paused" ></circle>
<circle cx="1299.138819019252" cy="559.6772177699365" r="38.17248563678459" fill="#ecedfc" transform="matrix(1,0,0,1,-9.033683776855469,0)" style="transform:matrix(1, 0, 0, 1, -9.03368, 0);animation-play-state:paused" ></circle>
<circle cx="1337.3113046560366" cy="534.4973524631688" r="57.84874868231759" fill="#ecedfc" transform="matrix(1,0,0,1,-9.785367012023926,0)" style="transform:matrix(1, 0, 0, 1, -9.78537, 0);animation-play-state:paused" ></circle>
<circle cx="1395.1600533383541" cy="491.9816657818842" r="87.12873124743662" fill="#ecedfc" transform="matrix(1,0,0,1,-10,0)" style="transform:matrix(1, 0, 0, 1, -10, 0);animation-play-state:paused" ></circle>
<circle cx="0" cy="574.2561875388826" r="73.9531770509312" fill="#f7f5fd" transform="matrix(1,0,0,1,0,0)" style="transform:matrix(1, 0, 0, 1, 0, 0);animation-play-state:paused" ></circle>
<circle cx="73.9531770509312" cy="581.5101872331635" r="76.15389055837784" fill="#f7f5fd" transform="matrix(1,0,0,1,-0.297871857881546,0)" style="transform:matrix(1, 0, 0, 1, -0.297872, 0);animation-play-state:paused" ></circle>
<circle cx="150.10706760930904" cy="607.1320318532454" r="59.67087058346452" fill="#f7f5fd" transform="matrix(1,0,0,1,-1.3677345514297485,0)" style="transform:matrix(1, 0, 0, 1, -1.36773, 0);animation-play-state:paused" ></circle>
<circle cx="209.77793819277355" cy="622.2976565816094" r="48.95464307072914" fill="#f7f5fd" transform="matrix(1,0,0,1,-3.4464633464813232,0)" style="transform:matrix(1, 0, 0, 1, -3.44646, 0);animation-play-state:paused" ></circle>
<circle cx="258.7325812635027" cy="622.7525336455063" r="53.99310730714704" fill="#f7f5fd" transform="matrix(1,0,0,1,-6.1800312995910645,0)" style="transform:matrix(1, 0, 0, 1, -6.18003, 0);animation-play-state:paused" ></circle>
<circle cx="312.72568857064977" cy="635.1528896743872" r="42.805148699472014" fill="#f7f5fd" transform="matrix(1,0,0,1,-8.399735450744629,0)" style="transform:matrix(1, 0, 0, 1, -8.39974, 0);animation-play-state:paused" ></circle>
<circle cx="355.53083727012176" cy="615.2470008857617" r="82.99839625390003" fill="#f7f5fd" transform="matrix(1,0,0,1,-9.603246688842773,0)" style="transform:matrix(1, 0, 0, 1, -9.60325, 0);animation-play-state:paused" ></circle>
<circle cx="438.5292335240218" cy="634.7492993187378" r="65.77210588216352" fill="#f7f5fd" transform="matrix(1,0,0,1,-9.9945707321167,0)" style="transform:matrix(1, 0, 0, 1, -9.99457, 0);animation-play-state:paused" ></circle>
<circle cx="504.3013394061853" cy="649.518011221856" r="42.94099680095326" fill="#f7f5fd" transform="matrix(1,0,0,1,-9.785361289978027,0)" style="transform:matrix(1, 0, 0, 1, -9.78536, 0);animation-play-state:paused" ></circle>
<circle cx="547.2423362071386" cy="641.7854996098383" r="88.94220874698033" fill="#f7f5fd" transform="matrix(1,0,0,1,-8.843363761901855,0)" style="transform:matrix(1, 0, 0, 1, -8.84336, 0);animation-play-state:paused" ></circle>
<circle cx="636.1845449541189" cy="655.4058200469032" r="92.32750350786638" fill="#f7f5fd" transform="matrix(1,0,0,1,-6.911342620849609,0)" style="transform:matrix(1, 0, 0, 1, -6.91134, 0);animation-play-state:paused" ></circle>
<circle cx="728.5120484619853" cy="656.2258253925579" r="84.71678403920419" fill="#f7f5fd" transform="matrix(1,0,0,1,-4.205990791320801,0)" style="transform:matrix(1, 0, 0, 1, -4.20599, 0);animation-play-state:paused" ></circle>
<circle cx="813.2288325011895" cy="653.0709978361166" r="43.394822455250086" fill="#f7f5fd" transform="matrix(1,0,0,1,-1.8546714782714844,0)" style="transform:matrix(1, 0, 0, 1, -1.85467, 0);animation-play-state:paused" ></circle>
<circle cx="856.6236549564395" cy="647.5898746885453" r="50.51690484592577" fill="#f7f5fd" transform="matrix(1,0,0,1,-0.5121488571166992,0)" style="transform:matrix(1, 0, 0, 1, -0.512149, 0);animation-play-state:paused" ></circle>
<circle cx="907.1405598023653" cy="633.9332617283618" r="73.81001701578772" fill="#f7f5fd" transform="matrix(1,0,0,1,-0.022116661071777344,0)" style="transform:matrix(1, 0, 0, 1, -0.0221167, 0);animation-play-state:paused" ></circle>
<circle cx="980.950576818153" cy="631.8094414212591" r="59.58245306089225" fill="#f7f5fd" transform="matrix(1,0,0,1,-0.14622078835964203,0)" style="transform:matrix(1, 0, 0, 1, -0.146221, 0);animation-play-state:paused" ></circle>
<circle cx="1040.5330298790452" cy="609.4061355780285" r="85.31754724076357" fill="#f7f5fd" transform="matrix(1,0,0,1,-0.9663317203521729,0)" style="transform:matrix(1, 0, 0, 1, -0.966332, 0);animation-play-state:paused" ></circle>
<circle cx="1125.8505771198088" cy="595.2247121596829" r="87.10711164323712" fill="#f7f5fd" transform="matrix(1,0,0,1,-2.749058246612549,0)" style="transform:matrix(1, 0, 0, 1, -2.74906, 0);animation-play-state:paused" ></circle>
<circle cx="1212.957688763046" cy="610.3507303314001" r="56.54453167696169" fill="#f7f5fd" transform="matrix(1,0,0,1,-5.399258613586426,0)" style="transform:matrix(1, 0, 0, 1, -5.39926, 0);animation-play-state:paused" ></circle>
<circle cx="1269.5022204400077" cy="614.8593523013943" r="46.71772932288913" fill="#f7f5fd" transform="matrix(1,0,0,1,-7.868867874145508,0)" style="transform:matrix(1, 0, 0, 1, -7.86887, 0);animation-play-state:paused" ></circle>
<circle cx="1316.219949762897" cy="571.4149716467726" r="82.32075651422078" fill="#f7f5fd" transform="matrix(1,0,0,1,-9.355055809020996,0)" style="transform:matrix(1, 0, 0, 1, -9.35506, 0);animation-play-state:paused" ></circle>
<circle cx="1398.5407062771178" cy="570.9931556165484" r="73.18553433627696" fill="#f7f5fd" transform="matrix(1,0,0,1,-9.949310302734375,0)" style="transform:matrix(1, 0, 0, 1, -9.94931, 0);animation-play-state:paused" ></circle>
<circle cx="0" cy="663.9901920214338" r="50.84150664880521" fill="#ffffff" transform="matrix(1,0,0,1,0,0)" style="transform:matrix(1, 0, 0, 1, 0, 0);animation-play-state:paused" ></circle>
<circle cx="50.84150664880521" cy="683.4975518489722" r="37.36691086344955" fill="#ffffff" transform="matrix(1,0,0,1,-0.3967548906803131,0)" style="transform:matrix(1, 0, 0, 1, -0.396755, 0);animation-play-state:paused" ></circle>
<circle cx="88.20841751225475" cy="635.9474150368386" r="85.21600579742065" fill="#ffffff" transform="matrix(1,0,0,1,-1.8546782732009888,0)" style="transform:matrix(1, 0, 0, 1, -1.85468, 0);animation-play-state:paused" ></circle>
<circle cx="173.4244233096754" cy="674.2012979674872" r="56.739234039878724" fill="#ffffff" transform="matrix(1,0,0,1,-4.60075569152832,0)" style="transform:matrix(1, 0, 0, 1, -4.60076, 0);animation-play-state:paused" ></circle>
<circle cx="230.16365734955411" cy="673.2375374143527" r="65.0598583053059" fill="#ffffff" transform="matrix(1,0,0,1,-7.57051944732666,0)" style="transform:matrix(1, 0, 0, 1, -7.57052, 0);animation-play-state:paused" ></circle>
<circle cx="295.22351565486" cy="693.092618872072" r="46.832694843047435" fill="#ffffff" transform="matrix(1,0,0,1,-9.355050086975098,0)" style="transform:matrix(1, 0, 0, 1, -9.35505, 0);animation-play-state:paused" ></circle>
<circle cx="342.05621049790744" cy="703.6159044751577" r="35.698302020196856" fill="#ffffff" transform="matrix(1,0,0,1,-9.977882385253906,0)" style="transform:matrix(1, 0, 0, 1, -9.97788, 0);animation-play-state:paused" ></circle>
<circle cx="377.7545125181043" cy="696.2522052968267" r="53.60369655323177" fill="#ffffff" transform="matrix(1,0,0,1,-9.78536319732666,0)" style="transform:matrix(1, 0, 0, 1, -9.78536, 0);animation-play-state:paused" ></circle>
<circle cx="431.3582090713361" cy="708.7301425762149" r="36.79937455087823" fill="#ffffff" transform="matrix(1,0,0,1,-8.632266998291016,0)" style="transform:matrix(1, 0, 0, 1, -8.63227, 0);animation-play-state:paused" ></circle>
<circle cx="468.1575836222143" cy="700.2876152588757" r="65.46875559133895" fill="#ffffff" transform="matrix(1,0,0,1,-6.180026531219482,0)" style="transform:matrix(1, 0, 0, 1, -6.18003, 0);animation-play-state:paused" ></circle>
<circle cx="533.6263392135533" cy="705.7005936204657" r="73.53758848682897" fill="#ffffff" transform="matrix(1,0,0,1,-3.088648796081543,0)" style="transform:matrix(1, 0, 0, 1, -3.08865, 0);animation-play-state:paused" ></circle>
<circle cx="607.1639277003823" cy="717.7757517583282" r="54.219597167951356" fill="#ffffff" transform="matrix(1,0,0,1,-0.9663257598876953,0)" style="transform:matrix(1, 0, 0, 1, -0.966326, 0);animation-play-state:paused" ></circle>
<circle cx="661.3835248683337" cy="723.5700383600578" r="37.65121256401459" fill="#ffffff" transform="matrix(1,0,0,1,-0.09182167053222656,0)" style="transform:matrix(1, 0, 0, 1, -0.0918217, 0);animation-play-state:paused" ></circle>
<circle cx="699.0347374323483" cy="722.8007666386346" r="78.06366189602915" fill="#ffffff" transform="matrix(1,0,0,1,-0.09182170033454895,0)" style="transform:matrix(1, 0, 0, 1, -0.0918217, 0);animation-play-state:paused" ></circle>
<circle cx="777.0983993283774" cy="713.3011130349596" r="70.76227167653963" fill="#ffffff" transform="matrix(1,0,0,1,-0.9663257002830505,0)" style="transform:matrix(1, 0, 0, 1, -0.966326, 0);animation-play-state:paused" ></circle>
<circle cx="847.860671004917" cy="709.2788493732454" r="54.275861209661144" fill="#ffffff" transform="matrix(1,0,0,1,-3.0886495113372803,0)" style="transform:matrix(1, 0, 0, 1, -3.08865, 0);animation-play-state:paused" ></circle>
<circle cx="902.1365322145781" cy="703.9520977684689" r="54.66803837945147" fill="#ffffff" transform="matrix(1,0,0,1,-6.180027961730957,0)" style="transform:matrix(1, 0, 0, 1, -6.18003, 0);animation-play-state:paused" ></circle>
<circle cx="956.8045705940295" cy="690.5678557885672" r="71.57524326379722" fill="#ffffff" transform="matrix(1,0,0,1,-8.632266998291016,0)" style="transform:matrix(1, 0, 0, 1, -8.63227, 0);animation-play-state:paused" ></circle>
<circle cx="1028.3798138578268" cy="694.47407665727" r="50.305018819240814" fill="#ffffff" transform="matrix(1,0,0,1,-9.785362243652344,0)" style="transform:matrix(1, 0, 0, 1, -9.78536, 0);animation-play-state:paused" ></circle>
<circle cx="1078.6848326770676" cy="675.2297423832119" r="71.5912496196377" fill="#ffffff" transform="matrix(1,0,0,1,-9.977882385253906,0)" style="transform:matrix(1, 0, 0, 1, -9.97788, 0);animation-play-state:paused" ></circle>
<circle cx="1150.2760822967052" cy="693.9930117705381" r="37.76813066740569" fill="#ffffff" transform="matrix(1,0,0,1,-9.355049133300781,0)" style="transform:matrix(1, 0, 0, 1, -9.35505, 0);animation-play-state:paused" ></circle>
<circle cx="1188.044212964111" cy="695.4067244861707" r="33.35055733259429" fill="#ffffff" transform="matrix(1,0,0,1,-7.57051944732666,0)" style="transform:matrix(1, 0, 0, 1, -7.57052, 0);animation-play-state:paused" ></circle>
<circle cx="1221.3947702967052" cy="662.9422469339098" r="65.60465740405392" fill="#ffffff" transform="matrix(1,0,0,1,-4.600756645202637,0)" style="transform:matrix(1, 0, 0, 1, -4.60076, 0);animation-play-state:paused" ></circle>
<circle cx="1286.9994277007593" cy="649.9334867768429" r="70.73741323258527" fill="#ffffff" transform="matrix(1,0,0,1,-1.8546791076660156,0)" style="transform:matrix(1, 0, 0, 1, -1.85468, 0);animation-play-state:paused" ></circle>
<circle cx="1357.7368409333446" cy="625.0305799170569" r="84.3280789566808" fill="#ffffff" transform="matrix(1,0,0,1,-0.3967552185058594,0)" style="transform:matrix(1, 0, 0, 1, -0.396755, 0);animation-play-state:paused" ></circle></g></svg>